<svg xmlns="http://www.w3.org/2000/svg" width="1024" height="500"><rect width="100%" height="100%" fill="#087f5b"/><path fill="#FFF" d="M271.53 209.13h16.25v11.56h-50v-11.56h18.31v-52.69q0-3.13.19-6.44l-13 10.88q-1.12.87-2.22 1.09-1.09.22-2.06.03t-1.72-.65q-.75-.47-1.12-1.04l-4.88-6.68 27.56-23.44h12.69v78.94Zm93.44-33.63q0 11.81-2.53 20.53t-7 14.41q-4.47 5.69-10.56 8.47-6.1 2.78-13.16 2.78-7.06 0-13.09-2.78-6.04-2.78-10.47-8.47-4.44-5.69-6.94-14.41-2.5-8.72-2.5-20.53 0-11.87 2.5-20.56t6.94-14.38q4.43-5.68 10.47-8.46 6.03-2.79 13.09-2.79t13.16 2.79q6.09 2.78 10.56 8.46 4.47 5.69 7 14.38 2.53 8.69 2.53 20.56Zm-15.94 0q0-9.81-1.44-16.25-1.43-6.44-3.84-10.25-2.41-3.81-5.53-5.34-3.13-1.53-6.5-1.53-3.31 0-6.41 1.53-3.09 1.53-5.47 5.34-2.37 3.81-3.78 10.25-1.4 6.44-1.4 16.25 0 9.81 1.4 16.25 1.41 6.44 3.78 10.25 2.38 3.81 5.47 5.35 3.1 1.53 6.41 1.53 3.37 0 6.5-1.53 3.12-1.54 5.53-5.35 2.41-3.81 3.84-10.25 1.44-6.44 1.44-16.25Zm57.19 30.81h23.19q2.5 0 3.97 1.41 1.46 1.41 1.46 3.72v9.25h-62v-5.13q0-1.56.66-3.28.66-1.72 2.09-3.09l27.44-27.5q3.44-3.5 6.16-6.69 2.72-3.19 4.53-6.31 1.81-3.13 2.78-6.34.97-3.22.97-6.79 0-3.25-.94-5.71-.94-2.47-2.65-4.16-1.72-1.69-4.13-2.53-2.41-.85-5.41-.85-2.75 0-5.09.79-2.34.78-4.16 2.18-1.81 1.41-3.06 3.28-1.25 1.88-1.87 4.13-1.07 2.87-2.75 3.81-1.69.94-4.88.44l-8.12-1.44q.93-6.5 3.62-11.4 2.69-4.91 6.72-8.19 4.03-3.28 9.25-4.94 5.22-1.66 11.22-1.66 6.25 0 11.44 1.85 5.18 1.84 8.87 5.22 3.69 3.37 5.75 8.12 2.06 4.75 2.06 10.56 0 5-1.46 9.25-1.47 4.25-3.94 8.13-2.47 3.87-5.78 7.5-3.32 3.62-6.94 7.37l-20.38 20.82q2.94-.88 5.85-1.35 2.9-.47 5.53-.47Zm51.37-19.68h27.5v-29.57q0-4.18.57-9.25l-28.07 38.82Zm40.94 0h11.38v8.93q0 1.25-.82 2.16-.81.91-2.31.91h-8.25v22.06h-13.44v-22.06h-38.12q-1.56 0-2.75-.97t-1.5-2.41l-1.63-7.81 42.82-57.19h14.62v56.38Zm57.5.31 21.94 33.75H563.1q-1.69 0-2.72-.88-1.03-.87-1.72-2L545.1 195.5q-.32 1.06-.72 2-.41.94-.91 1.75l-12 18.56q-.69 1.07-1.69 1.97-1 .91-2.5.91h-13.81l22-33.06-21.12-31.07h14.87q1.69 0 2.5.47t1.44 1.53l13.44 21.38q.68-2.13 1.93-4.19l10.82-16.87q1.37-2.32 3.56-2.32h14.19l-21.07 30.38Zm50.88-42.63-3.19 18.82q3-.63 5.75-.91t5.31-.28q7.13 0 12.57 2.12 5.43 2.13 9.12 5.88 3.69 3.75 5.56 8.78 1.88 5.03 1.88 10.84 0 7.19-2.53 13.13t-7.03 10.16q-4.5 4.21-10.66 6.53-6.16 2.31-13.41 2.31-4.25 0-8.06-.87-3.81-.88-7.16-2.35-3.34-1.47-6.18-3.37-2.85-1.91-5.1-4.04l4.75-6.56q1.5-2.12 3.94-2.12 1.56 0 3.19 1 1.62 1 3.72 2.18 2.09 1.19 4.93 2.19 2.85 1 6.85 1 4.25 0 7.5-1.37 3.25-1.38 5.4-3.85 2.16-2.47 3.25-5.87 1.1-3.41 1.1-7.41 0-7.37-4.28-11.53-4.28-4.16-12.66-4.16-6.44 0-13.19 2.38l-9.62-2.75 7.5-43.88h44.62v6.57q0 3.31-2.06 5.37t-7 2.06h-24.81Zm113.31 31.19q0 11.81-2.53 20.53t-7 14.41q-4.47 5.69-10.56 8.47-6.1 2.78-13.16 2.78-7.06 0-13.09-2.78t-10.47-8.47q-4.44-5.69-6.94-14.41-2.5-8.72-2.5-20.53 0-11.87 2.5-20.56t6.94-14.38q4.44-5.68 10.47-8.46 6.03-2.79 13.09-2.79t13.16 2.79q6.09 2.78 10.56 8.46 4.47 5.69 7 14.38 2.53 8.69 2.53 20.56Zm-15.94 0q0-9.81-1.43-16.25-1.44-6.44-3.85-10.25-2.4-3.81-5.53-5.34-3.12-1.53-6.5-1.53-3.31 0-6.41 1.53-3.09 1.53-5.46 5.34-2.38 3.81-3.79 10.25-1.4 6.44-1.4 16.25 0 9.81 1.4 16.25 1.41 6.44 3.79 10.25 2.37 3.81 5.46 5.35 3.1 1.53 6.41 1.53 3.38 0 6.5-1.53 3.13-1.54 5.53-5.35 2.41-3.81 3.85-10.25 1.43-6.44 1.43-16.25Zm88.44 0q0 11.81-2.53 20.53t-7 14.41q-4.47 5.69-10.56 8.47-6.1 2.78-13.16 2.78-7.06 0-13.09-2.78t-10.47-8.47q-4.44-5.69-6.94-14.41-2.5-8.72-2.5-20.53 0-11.87 2.5-20.56t6.94-14.38q4.44-5.68 10.47-8.46 6.03-2.79 13.09-2.79t13.16 2.79q6.09 2.78 10.56 8.46 4.47 5.69 7 14.38 2.53 8.69 2.53 20.56Zm-15.94 0q0-9.81-1.43-16.25-1.44-6.44-3.85-10.25-2.4-3.81-5.53-5.34-3.12-1.53-6.5-1.53-3.31 0-6.41 1.53-3.09 1.53-5.46 5.34-2.38 3.81-3.79 10.25-1.4 6.44-1.4 16.25 0 9.81 1.4 16.25 1.41 6.44 3.79 10.25 2.37 3.81 5.46 5.35 3.1 1.53 6.41 1.53 3.38 0 6.5-1.53 3.13-1.54 5.53-5.35 2.41-3.81 3.85-10.25 1.43-6.44 1.43-16.25ZM511.35 356.32h23.18q2.5 0 3.97 1.4 1.47 1.41 1.47 3.72v9.25h-62v-5.12q0-1.57.66-3.29.65-1.71 2.09-3.09l27.44-27.5q3.44-3.5 6.15-6.69 2.72-3.18 4.54-6.31 1.81-3.12 2.78-6.34.97-3.22.97-6.78 0-3.25-.94-5.72-.94-2.47-2.66-4.16-1.72-1.69-4.12-2.53-2.41-.84-5.41-.84-2.75 0-5.09.78-2.35.78-4.16 2.18-1.81 1.41-3.06 3.29-1.25 1.87-1.88 4.12-1.06 2.88-2.75 3.81-1.69.94-4.87.44l-8.13-1.44q.94-6.5 3.63-11.4 2.68-4.91 6.72-8.19 4.03-3.28 9.25-4.94 5.21-1.65 11.22-1.65 6.25 0 11.43 1.84 5.19 1.84 8.88 5.22 3.69 3.37 5.75 8.12 2.06 4.75 2.06 10.57 0 5-1.47 9.25t-3.94 8.12q-2.46 3.88-5.78 7.5-3.31 3.63-6.93 7.38l-20.38 20.81q2.94-.88 5.84-1.35 2.91-.46 5.54-.46Z"/></svg>
