<svg xmlns="http://www.w3.org/2000/svg" width="720" height="1280"><rect width="100%" height="100%" fill="#0b7285"/><path fill="#FFF" d="M145.75 549.035h47.45v5.09q0 2.28-.47 3.68-.48 1.4-.95 2.35l-26.03 53.58q-.81 1.66-2.28 2.83-1.47 1.16-3.94 1.16h-8.51l26.56-52.49q.9-1.61 1.78-2.97.88-1.35 1.97-2.59h-32.87q-1.09 0-1.9-.8-.81-.81-.81-1.9v-7.94Zm79.66 57.76h17.62q1.9 0 3.02 1.07 1.11 1.07 1.11 2.83v7.03h-47.12v-3.9q0-1.18.5-2.49.5-1.31 1.59-2.35l20.86-20.9q2.61-2.66 4.68-5.08 2.06-2.43 3.44-4.8 1.38-2.38 2.11-4.82.74-2.45.74-5.15 0-2.48-.71-4.35-.72-1.88-2.02-3.16-1.31-1.28-3.14-1.92-1.83-.64-4.11-.64-2.09 0-3.87.59-1.78.59-3.16 1.66-1.37 1.07-2.32 2.5-.95 1.42-1.43 3.13-.81 2.19-2.09 2.9-1.28.71-3.7.33l-6.18-1.09q.71-4.94 2.76-8.67 2.04-3.73 5.1-6.22 3.07-2.5 7.03-3.76 3.97-1.26 8.53-1.26 4.75 0 8.69 1.41 3.94 1.4 6.75 3.96 2.8 2.57 4.37 6.18 1.56 3.61 1.56 8.02 0 3.8-1.11 7.04-1.12 3.22-2.99 6.17-1.88 2.94-4.4 5.7-2.52 2.76-5.27 5.6l-15.49 15.82q2.24-.66 4.45-1.02 2.2-.36 4.2-.36Zm78.85-23.41q0 8.97-1.92 15.6-1.93 6.63-5.32 10.95-3.4 4.32-8.03 6.44-4.63 2.11-10 2.11t-9.95-2.11q-4.59-2.12-7.96-6.44t-5.27-10.95q-1.9-6.63-1.9-15.6 0-9.03 1.9-15.63 1.9-6.6 5.27-10.93 3.37-4.32 7.96-6.43 4.58-2.12 9.95-2.12 5.37 0 10 2.12 4.63 2.11 8.03 6.43 3.39 4.33 5.32 10.93 1.92 6.6 1.92 15.63Zm-12.11 0q0-7.46-1.1-12.35-1.09-4.9-2.92-7.79-1.83-2.9-4.2-4.06-2.38-1.17-4.94-1.17-2.52 0-4.87 1.17-2.35 1.16-4.16 4.06-1.8 2.89-2.87 7.79-1.07 4.89-1.07 12.35 0 7.45 1.07 12.35 1.07 4.89 2.87 7.79 1.81 2.9 4.16 4.06 2.35 1.16 4.87 1.16 2.56 0 4.94-1.16 2.37-1.16 4.2-4.06 1.83-2.9 2.92-7.79 1.1-4.9 1.1-12.35Zm47.12 8.69 16.67 25.65h-11.31q-1.28 0-2.06-.67-.79-.66-1.31-1.52l-10.31-16.95q-.23.8-.54 1.52-.31.71-.69 1.33l-9.12 14.1q-.52.81-1.28 1.5t-1.9.69h-10.5l16.72-25.13-16.06-23.6h11.31q1.28 0 1.9.35.62.36 1.09 1.16l10.21 16.25q.53-1.62 1.48-3.18l8.21-12.83q1.05-1.75 2.71-1.75h10.78l-16 23.08Zm53.77 16.86h12.35v8.79h-38v-8.79h13.91v-40.04q0-2.37.15-4.89l-9.88 8.26q-.86.67-1.69.83-.83.17-1.57.03-.73-.14-1.3-.5-.57-.36-.86-.78l-3.7-5.09 20.94-17.81h9.65v59.99Zm47.26-2.14h17.62q1.9 0 3.02 1.07 1.11 1.07 1.11 2.83v7.03h-47.12v-3.9q0-1.18.5-2.49.5-1.31 1.59-2.35l20.86-20.9q2.61-2.66 4.68-5.08 2.06-2.43 3.44-4.8 1.38-2.38 2.11-4.82.74-2.45.74-5.15 0-2.48-.71-4.35-.72-1.88-2.02-3.16-1.31-1.28-3.14-1.92-1.83-.64-4.11-.64-2.09 0-3.87.59-1.78.59-3.16 1.66-1.37 1.07-2.32 2.5-.95 1.42-1.43 3.13-.81 2.19-2.09 2.9-1.28.71-3.7.33l-6.18-1.09q.71-4.94 2.76-8.67 2.04-3.73 5.1-6.22 3.07-2.5 7.03-3.76 3.97-1.26 8.53-1.26 4.75 0 8.69 1.41 3.94 1.4 6.75 3.96 2.8 2.57 4.37 6.18 1.56 3.61 1.56 8.02 0 3.8-1.11 7.04-1.12 3.22-2.99 6.17-1.88 2.94-4.4 5.7-2.52 2.76-5.27 5.6l-15.49 15.82q2.24-.66 4.45-1.02 2.2-.36 4.2-.36Zm53.67 2.52q2.9 0 5.09-.83 2.18-.83 3.68-2.3 1.49-1.48 2.25-3.52t.76-4.42q0-5.65-3.13-8.54-3.14-2.9-8.65-2.9t-8.64 2.9q-3.14 2.89-3.14 8.54 0 2.38.76 4.42t2.26 3.52q1.5 1.47 3.68 2.3 2.19.83 5.08.83Zm0-52.2q-2.61 0-4.51.81t-3.16 2.16q-1.26 1.35-1.85 3.11-.59 1.76-.59 3.7 0 2.05.5 3.97.49 1.92 1.68 3.42t3.14 2.4q1.94.9 4.79.9t4.8-.9q1.95-.9 3.14-2.4 1.18-1.5 1.68-3.42t.5-3.97q0-1.94-.62-3.7-.61-1.76-1.85-3.11-1.23-1.35-3.13-2.16t-4.52-.81Zm11.59 24.8q6.27 2.04 9.27 6.24 2.99 4.2 2.99 10.28 0 4.57-1.73 8.27-1.74 3.7-4.87 6.32-3.14 2.61-7.53 4.03-4.4 1.43-9.72 1.43t-9.71-1.43q-4.39-1.42-7.53-4.03-3.13-2.62-4.87-6.32-1.73-3.7-1.73-8.27 0-6.08 2.99-10.28 2.99-4.2 9.26-6.24-4.98-2.1-7.48-5.94-2.49-3.85-2.49-9.27 0-3.89 1.59-7.26 1.59-3.38 4.44-5.87 2.85-2.49 6.82-3.89 3.96-1.41 8.71-1.41 4.75 0 8.72 1.41 3.97 1.4 6.82 3.89t4.44 5.87q1.59 3.37 1.59 7.26 0 5.42-2.49 9.27-2.5 3.84-7.49 5.94Zm68.69 1.47q0 8.97-1.92 15.6-1.93 6.63-5.32 10.95-3.4 4.32-8.03 6.44-4.63 2.11-10 2.11t-9.95-2.11q-4.59-2.12-7.96-6.44t-5.27-10.95q-1.9-6.63-1.9-15.6 0-9.03 1.9-15.63 1.9-6.6 5.27-10.93 3.37-4.32 7.96-6.43 4.58-2.12 9.95-2.12 5.37 0 10 2.12 4.63 2.11 8.03 6.43 3.39 4.33 5.32 10.93 1.92 6.6 1.92 15.63Zm-12.11 0q0-7.46-1.1-12.35-1.09-4.9-2.92-7.79-1.83-2.9-4.2-4.06-2.38-1.17-4.94-1.17-2.52 0-4.87 1.17-2.35 1.16-4.16 4.06-1.8 2.89-2.87 7.79-1.07 4.89-1.07 12.35 0 7.45 1.07 12.35 1.07 4.89 2.87 7.79 1.81 2.9 4.16 4.06 2.35 1.16 4.87 1.16 2.56 0 4.94-1.16 2.37-1.16 4.2-4.06 1.83-2.9 2.92-7.79 1.1-4.9 1.1-12.35Zm-201.73 137.42h17.62q1.9 0 3.01 1.06 1.12 1.07 1.12 2.83v7.03h-47.12v-3.89q0-1.19.5-2.5.5-1.3 1.59-2.35l20.85-20.9q2.61-2.66 4.68-5.08 2.07-2.43 3.44-4.8 1.38-2.38 2.12-4.82.73-2.45.73-5.16 0-2.47-.71-4.34-.71-1.88-2.02-3.16-1.3-1.28-3.13-1.92-1.83-.64-4.11-.64-2.09 0-3.87.59-1.78.59-3.16 1.66-1.38 1.07-2.33 2.5-.95 1.42-1.42 3.13-.81 2.18-2.09 2.9-1.29.71-3.71.33l-6.17-1.09q.71-4.94 2.75-8.67 2.05-3.73 5.11-6.22 3.06-2.5 7.03-3.76 3.97-1.26 8.52-1.26 4.76 0 8.7 1.41 3.94 1.4 6.74 3.96 2.8 2.57 4.37 6.18 1.57 3.61 1.57 8.03 0 3.79-1.12 7.03-1.11 3.22-2.99 6.17-1.87 2.95-4.39 5.7-2.52 2.75-5.28 5.6l-15.48 15.82q2.23-.66 4.44-1.02 2.21-.35 4.21-.35Z"/></svg>